<?xml version="1.0" encoding="UTF-8"?>
<!DOCTYPE svg PUBLIC "-//W3C//DTD SVG 1.1//EN" "http://www.w3.org/Graphics/SVG/1.1/DTD/svg11.dtd">
<!-- Creator: CorelDRAW X7 -->
<svg xmlns="http://www.w3.org/2000/svg" xml:space="preserve" width="105mm" height="148mm" version="1.1" style="shape-rendering:geometricPrecision; text-rendering:geometricPrecision; image-rendering:optimizeQuality; fill-rule:evenodd; clip-rule:evenodd"
viewBox="0 0 10500 14800"
 xmlns:xlink="http://www.w3.org/1999/xlink">
 <defs>
  <style type="text/css">
   <![CDATA[
    .fil0 {fill:#2B2A29}
   ]]>
  </style>
 </defs>
 <g id="Слой_x0020_1">
  <metadata id="CorelCorpID_0Corel-Layer"/>
  <path class="fil0" d="M2638 7668l3227 -1684c-3,-14 -5,-28 -5,-43 0,-47 19,-89 50,-120l0 0c31,-31 73,-50 120,-50 47,0 90,19 121,50 16,16 29,36 38,58l1114 -159c4,-28 17,-53 37,-72l0 0c23,-24 56,-39 92,-39 37,0 70,15 93,39l0 0 0 0c24,23 39,56 39,92 0,16 -3,32 -8,46l398 304c21,-16 48,-25 76,-25 36,0 69,15 93,39l0 0c24,24 38,56 38,93 0,36 -14,69 -38,93l0 0 0 0c-24,23 -57,38 -93,38 -36,0 -69,-15 -93,-38 -24,-24 -38,-57 -38,-93 0,-16 3,-32 8,-46l-398 -304c-22,16 -48,25 -77,25 -36,0 -69,-15 -92,-39l0 0c-11,-10 -20,-23 -26,-36l-1114 159c-4,41 -22,78 -49,105l0 0c-31,31 -74,50 -121,50 -47,0 -89,-19 -120,-50 -3,-3 -6,-6 -9,-9l-3227 1684c3,14 5,28 5,43 0,47 -19,89 -50,120 -31,31 -73,50 -120,50 -47,0 -90,-19 -121,-50l0 0c-30,-31 -49,-73 -49,-120 0,-47 19,-90 49,-121 31,-30 74,-49 121,-49 47,0 89,19 120,49l0 0c3,3 6,7 9,10z"/>
 </g>
</svg>
