<?xml version="1.0" encoding="UTF-8"?>
<!DOCTYPE svg PUBLIC "-//W3C//DTD SVG 1.1//EN" "http://www.w3.org/Graphics/SVG/1.1/DTD/svg11.dtd">
<!-- Creator: CorelDRAW X7 -->
<svg xmlns="http://www.w3.org/2000/svg" xml:space="preserve" width="105mm" height="148mm" version="1.1" style="shape-rendering:geometricPrecision; text-rendering:geometricPrecision; image-rendering:optimizeQuality; fill-rule:evenodd; clip-rule:evenodd"
viewBox="0 0 10500 14800"
 xmlns:xlink="http://www.w3.org/1999/xlink">
 <defs>
  <style type="text/css">
   <![CDATA[
    .fil0 {fill:#2B2A29}
   ]]>
  </style>
 </defs>
 <g id="Слой_x0020_1">
  <metadata id="CorelCorpID_0Corel-Layer"/>
  <path class="fil0" d="M3736 7554c28,9 52,25 72,45l0 0c33,33 53,78 53,128 0,17 -2,32 -6,47l563 281 2 -2 0 0 0 0c23,-22 54,-37 89,-37 35,0 67,15 90,37l0 0c16,17 28,38 34,62l1015 80c6,-16 16,-31 28,-43 11,-11 24,-20 39,-26l-276 -2514c-25,-5 -48,-17 -65,-35 -23,-23 -37,-54 -37,-89 0,-23 6,-44 16,-62l-501 -529c-28,17 -61,27 -96,27 -31,0 -61,-8 -87,-23l-651 762c12,19 19,42 19,67 0,35 -14,67 -37,89l0 0c-17,18 -40,31 -66,35l-198 1700zm86 287c-5,5 -9,10 -14,15 -33,33 -79,54 -129,54 -51,0 -96,-21 -129,-54l0 0c-33,-33 -54,-78 -54,-129 0,-50 21,-95 54,-128l0 0c29,-30 68,-49 112,-53l198 -1700c-14,-7 -27,-16 -38,-27 -23,-23 -37,-54 -37,-89 0,-35 14,-66 37,-89 22,-23 54,-37 89,-37 18,0 35,3 50,10l651 -761c-24,-31 -38,-70 -38,-112 0,-50 20,-96 53,-128l0 0c34,-33 79,-54 129,-54 51,0 96,21 129,54l0 0c33,32 54,78 54,128 0,39 -12,75 -33,104l501 530c17,-9 36,-14 56,-14 35,0 67,15 90,37l0 1c22,22 37,54 37,89 0,35 -15,66 -37,89l0 0c-12,11 -25,20 -40,27l276 2514c25,4 48,17 65,34 23,23 37,55 37,90 0,10 -1,20 -3,29l905 539c22,-20 52,-32 84,-32 35,0 67,14 90,37l0 0c23,23 37,54 37,89 0,35 -14,67 -37,89 -23,23 -55,37 -90,37 -35,0 -66,-14 -89,-37l0 0c-23,-22 -37,-54 -37,-89 0,-10 1,-20 4,-30l-905 -539c-23,21 -52,33 -85,33 -35,0 -67,-14 -89,-37l0 0c-17,-17 -29,-38 -34,-62l-1015 -80c-7,17 -16,31 -28,43 -23,23 -55,37 -90,37 -35,0 -66,-14 -89,-37 -23,-23 -37,-54 -37,-89 0,-7 1,-14 2,-21l-563 -281z"/>
 </g>
</svg>
