<?xml version="1.0" encoding="UTF-8"?>
<!DOCTYPE svg PUBLIC "-//W3C//DTD SVG 1.1//EN" "http://www.w3.org/Graphics/SVG/1.1/DTD/svg11.dtd">
<!-- Creator: CorelDRAW X7 -->
<svg xmlns="http://www.w3.org/2000/svg" xml:space="preserve" width="105mm" height="148mm" version="1.1" style="shape-rendering:geometricPrecision; text-rendering:geometricPrecision; image-rendering:optimizeQuality; fill-rule:evenodd; clip-rule:evenodd"
viewBox="0 0 10500 14800"
 xmlns:xlink="http://www.w3.org/1999/xlink">
 <defs>
  <style type="text/css">
   <![CDATA[
    .fil0 {fill:#2B2A29}
   ]]>
  </style>
 </defs>
 <g id="Слой_x0020_1">
  <metadata id="CorelCorpID_0Corel-Layer"/>
  <path class="fil0" d="M6067 6431c26,8 50,22 69,42l0 0c31,30 50,73 50,120 0,47 -19,89 -50,120l0 0c-10,10 -21,19 -34,27 -5,2 -10,5 -15,8l134 647c31,3 59,17 80,38l0 0c24,24 39,56 39,93 0,29 -10,55 -26,77l799 1071 34 45c24,-11 51,-18 80,-18 52,0 99,21 134,56 34,34 55,81 55,134 0,52 -21,100 -55,134 -35,34 -82,55 -134,55 -53,0 -100,-21 -135,-55l0 0c-34,-34 -55,-82 -55,-134 0,-48 18,-92 47,-126l-832 -1116 -4 2 8 838c37,7 71,26 97,52l0 0c34,34 56,82 56,134 0,52 -22,100 -56,134 -34,34 -82,56 -134,56 -40,0 -78,-13 -109,-35l-248 234c17,29 27,63 27,99 0,53 -21,100 -55,134l0 0c-35,35 -82,56 -134,56 -53,0 -100,-21 -134,-56l0 0c-35,-34 -56,-81 -56,-134 0,-52 21,-99 56,-134 34,-34 81,-55 134,-55 20,0 39,3 57,9 19,5 36,14 51,25l249 -234c-17,-29 -28,-63 -28,-99 0,-52 22,-100 56,-134l0 0c25,-25 57,-43 93,-51l-7 -815 0 -23c-22,-7 -41,-18 -56,-33 -23,-24 -38,-57 -38,-93 0,-37 15,-69 38,-93l0 0c9,-9 19,-16 30,-22l-134 -648c-45,-1 -86,-20 -116,-50 -30,-30 -49,-73 -49,-120 0,-47 19,-90 49,-120l0 0c25,-25 58,-43 94,-48l84 -1114c-27,-8 -50,-23 -70,-42 -29,-30 -48,-71 -49,-116l-501 -103c-8,18 -20,35 -34,49l0 0c-31,31 -73,50 -120,50 -47,0 -90,-19 -121,-50 -15,-15 -27,-33 -36,-54l-444 77c-3,43 -21,82 -50,111l0 0c-20,20 -45,35 -74,43l37 734c23,6 44,18 60,34 24,24 39,57 39,93 0,36 -15,69 -39,93l0 0c-16,16 -37,28 -60,34l-39 835c18,7 35,17 48,31 24,23 39,56 39,93 0,36 -15,69 -39,92l0 0c-20,21 -47,34 -77,38l-94 529c12,6 23,14 32,24 24,24 39,57 39,93 0,36 -15,69 -39,93 -10,10 -23,19 -36,26l105 743c48,3 90,24 122,55l0 0c34,35 56,82 56,134 0,53 -22,100 -56,134 -34,35 -82,56 -134,56 -52,0 -100,-21 -134,-56l0 0 0 0c-34,-34 -56,-82 -56,-134 0,-52 22,-100 56,-134l0 0c19,-19 43,-35 69,-44l-3 -23 -102 -721c-28,-4 -53,-17 -72,-36l0 0c-24,-24 -39,-57 -39,-93 0,-36 15,-69 39,-93l0 0c20,-20 47,-34 76,-38l95 -529c-12,-6 -23,-14 -33,-24l0 0 -3 -3 -467 227 -419 204c0,2 0,4 0,7 0,52 -21,99 -55,134 -22,21 -48,37 -77,46l139 1379c26,6 49,18 67,36 24,24 39,57 39,93 0,36 -15,69 -39,93l0 0c-23,24 -56,39 -92,39 -37,0 -70,-15 -93,-39 -24,-24 -39,-57 -39,-93 0,-36 15,-69 39,-93l0 0c12,-12 26,-21 41,-28l-139 -1379c-45,-4 -84,-24 -114,-54l0 0 0 0c-35,-35 -56,-82 -56,-134 0,-53 21,-100 56,-134 34,-35 81,-56 134,-56 52,0 99,21 134,56 14,14 27,31 36,50l410 -199 461 -224c-1,-7 -1,-14 -1,-20 0,-37 15,-70 38,-93 17,-17 37,-29 60,-35l40 -834c-19,-7 -35,-18 -49,-31 -23,-24 -38,-57 -38,-93 0,-36 15,-69 38,-93l0 0c14,-13 30,-24 48,-30l-36 -734c-35,-6 -66,-23 -90,-47 -3,-4 -6,-7 -10,-11l-940 479c4,15 6,32 6,49 0,52 -21,100 -55,134l0 0c-19,19 -41,33 -66,43 -21,8 -44,13 -69,13 -52,0 -99,-22 -134,-56 -34,-34 -55,-82 -55,-134 0,-52 21,-100 55,-134l0 0c35,-34 82,-56 134,-56 53,0 100,22 134,56l1 0c4,5 9,10 13,15l941 -478c-3,-13 -5,-27 -5,-41 0,-47 19,-89 50,-120l0 0c6,-5 12,-11 18,-15l-143 -324c-11,2 -21,3 -32,3 -47,0 -90,-20 -120,-50 -31,-31 -50,-74 -50,-121 0,-47 19,-89 50,-120 30,-31 73,-50 120,-50 47,0 90,19 120,50l0 0c26,25 43,59 48,96 2,8 2,16 2,24 0,47 -19,90 -50,121l0 0c-5,5 -11,10 -17,15l143 324c10,-2 21,-3 32,-3 47,0 89,19 120,50l0 0c15,15 28,34 36,54l445 -77c2,-43 21,-82 49,-111l0 0c31,-30 74,-49 121,-49 47,0 89,19 120,49 30,30 49,71 50,116l500 103c9,-18 20,-35 34,-49l0 0c18,-18 40,-32 65,-40l-63 -586c-45,-5 -85,-25 -115,-55l0 0c-28,-28 -47,-64 -54,-105 -1,-10 -2,-19 -2,-29 0,-52 21,-100 56,-134l0 0c34,-34 81,-56 134,-56 52,0 99,22 134,56l0 0c34,34 55,82 55,134 0,52 -21,100 -55,134l0 0c-21,21 -47,37 -76,46l63 587c38,4 73,22 99,48l0 0c15,15 28,33 36,53l605 -106c4,-30 17,-56 37,-77l0 0c24,-23 57,-38 93,-38 37,0 69,15 93,38 24,24 39,57 39,93 0,37 -15,69 -39,93 -24,24 -56,39 -93,39 -36,0 -69,-15 -93,-39l0 0 0 0c-9,-9 -17,-20 -24,-33l-604 107c-3,43 -21,82 -50,111 -25,25 -57,42 -94,48l-83 1114z"/>
 </g>
</svg>
