<?xml version="1.0" encoding="UTF-8"?>
<!DOCTYPE svg PUBLIC "-//W3C//DTD SVG 1.1//EN" "http://www.w3.org/Graphics/SVG/1.1/DTD/svg11.dtd">
<!-- Creator: CorelDRAW X7 -->
<svg xmlns="http://www.w3.org/2000/svg" xml:space="preserve" width="105mm" height="148mm" version="1.1" style="shape-rendering:geometricPrecision; text-rendering:geometricPrecision; image-rendering:optimizeQuality; fill-rule:evenodd; clip-rule:evenodd"
viewBox="0 0 10500 14800"
 xmlns:xlink="http://www.w3.org/1999/xlink">
 <defs>
  <style type="text/css">
   <![CDATA[
    .fil0 {fill:#2B2A29}
   ]]>
  </style>
 </defs>
 <g id="Слой_x0020_1">
  <metadata id="CorelCorpID_0Corel-Layer"/>
  <path class="fil0" d="M2877 3430c52,0 99,21 134,56 34,34 55,81 55,134 0,52 -21,99 -55,134l0 0c-14,13 -29,24 -46,33l309 1083c3,-1 6,-1 9,-1 47,0 89,19 120,50l0 0c31,31 50,74 50,121 0,33 -9,63 -26,89l310 310c26,-16 57,-26 90,-26 47,0 90,19 121,50 16,16 29,36 37,58l886 -132c3,-41 21,-78 49,-106l0 0c31,-31 73,-50 120,-50 47,0 90,19 121,50l0 0c3,3 5,6 8,9l864 -456c-5,-16 -8,-34 -8,-52 0,-52 22,-100 56,-134l0 0c34,-34 82,-56 134,-56 52,0 100,22 134,56 34,34 56,82 56,134 0,52 -22,100 -56,134 -34,34 -82,56 -134,56 -52,0 -100,-22 -134,-56l0 0c-4,-4 -8,-9 -12,-13l-864 455c4,14 6,29 6,43 0,47 -19,90 -50,121l0 0c-10,9 -20,18 -32,25l490 1478c5,-1 10,-1 15,-1 47,0 90,19 120,50 31,31 50,73 50,120 0,16 -2,31 -6,46l228 125c3,-3 5,-5 7,-7l0 0c31,-31 73,-50 120,-50 47,0 90,19 121,50 30,31 50,73 50,120 0,17 -3,33 -7,48l122 68c2,-1 3,-3 5,-5 31,-31 74,-50 121,-50 46,0 89,19 120,50 31,31 50,73 50,120 0,39 -13,75 -36,104l837 1024c26,-14 56,-22 87,-22 53,0 100,21 135,56 34,34 55,82 55,134 0,52 -21,100 -55,134l-1 0c-34,34 -81,55 -134,55 -52,0 -99,-21 -134,-55 -34,-34 -55,-82 -55,-134 0,-14 1,-28 4,-41 7,-29 20,-56 38,-78l-837 -1024c-22,11 -48,18 -74,18 -47,0 -90,-19 -121,-50l0 0c-31,-31 -50,-74 -50,-121 0,-16 3,-32 7,-47l-122 -69c-2,2 -4,4 -5,5 -31,31 -74,50 -121,50 -47,0 -89,-19 -120,-50 -31,-30 -50,-73 -50,-120 0,-16 2,-31 6,-45l-228 -125c-2,2 -4,4 -7,6l0 1c-30,30 -73,49 -120,49 -47,0 -90,-19 -120,-49 -4,-4 -8,-9 -12,-13l-691 339 -926 453c4,15 6,31 6,47 0,14 -2,26 -4,39 -5,21 -13,42 -24,60l941 879c27,-18 60,-29 95,-29 47,0 90,19 120,50 2,2 4,4 6,6l49 -28c-4,-14 -6,-30 -6,-46 0,-47 19,-90 50,-121 31,-31 73,-50 120,-50 47,0 90,19 120,50 31,31 50,74 50,121 0,40 -14,78 -38,107l423 545 2 -1c24,-12 52,-18 81,-18 52,0 99,21 134,55l0 0c34,34 55,82 55,134 0,52 -21,100 -55,134l0 0c-35,34 -82,56 -134,56 -53,0 -100,-21 -134,-56l0 0c-35,-34 -56,-82 -56,-134 0,-47 17,-90 45,-123l-422 -545c-22,10 -46,16 -71,16 -47,0 -89,-19 -120,-50l0 0c-2,-2 -4,-4 -6,-6l-49 28c4,15 6,30 6,47 0,47 -19,89 -50,120l0 0c-30,31 -73,50 -120,50 -47,0 -90,-19 -120,-50 -31,-31 -50,-73 -50,-120 0,-31 8,-60 22,-85l-941 -880c-31,22 -68,35 -109,35 -52,0 -100,-21 -134,-56l0 0c-34,-34 -55,-81 -55,-134 0,-52 21,-99 55,-134l0 0c34,-34 82,-55 134,-55 3,0 6,0 9,0l195 -766c-15,-8 -29,-19 -41,-31 -31,-31 -50,-73 -50,-120 0,-47 19,-90 50,-121l0 0c17,-17 39,-31 64,-40l-122 -1124c-38,-4 -73,-22 -99,-48 -31,-31 -50,-74 -50,-121 0,-33 9,-63 26,-89l-310 -310c-26,16 -57,26 -90,26 -47,0 -90,-19 -121,-50l0 0c-30,-31 -50,-73 -50,-120 0,-47 20,-90 50,-121 11,-11 24,-20 38,-28l-310 -1082c-4,0 -9,0 -13,0 -53,0 -100,-21 -134,-55l-1 0c-34,-35 -55,-82 -55,-134 0,-53 21,-100 55,-134l0 0c35,-35 82,-56 135,-56zm1120 2167c-4,42 -22,79 -49,107l0 0c-12,11 -25,21 -40,29 -8,4 -16,8 -24,11l121 1124c38,5 73,22 99,48 31,31 50,74 50,121 0,47 -19,89 -50,120 -31,31 -73,50 -120,50l-3 0 -196 766c19,9 36,22 50,36l0 0 0 0c6,6 11,12 16,18l927 -454 690 -339c-3,-12 -4,-25 -4,-38 0,-47 19,-89 50,-120 9,-10 20,-18 31,-25l-489 -1478c-5,0 -10,1 -16,1 -47,0 -89,-19 -120,-50 -16,-17 -29,-36 -38,-58l-885 131z"/>
 </g>
</svg>
