<?xml version="1.0" encoding="UTF-8"?>
<!DOCTYPE svg PUBLIC "-//W3C//DTD SVG 1.1//EN" "http://www.w3.org/Graphics/SVG/1.1/DTD/svg11.dtd">
<!-- Creator: CorelDRAW X7 -->
<svg xmlns="http://www.w3.org/2000/svg" xml:space="preserve" width="105mm" height="148mm" version="1.1" style="shape-rendering:geometricPrecision; text-rendering:geometricPrecision; image-rendering:optimizeQuality; fill-rule:evenodd; clip-rule:evenodd"
viewBox="0 0 10500 14800"
 xmlns:xlink="http://www.w3.org/1999/xlink">
 <defs>
  <style type="text/css">
   <![CDATA[
    .fil0 {fill:#2B2A29}
   ]]>
  </style>
 </defs>
 <g id="Слой_x0020_1">
  <metadata id="CorelCorpID_0Corel-Layer"/>
  <path class="fil0" d="M3350 4269l612 -82c4,-40 22,-77 49,-104l0 0c31,-31 73,-50 120,-50 47,0 90,19 121,50l0 0c30,31 49,74 49,121 0,47 -19,89 -49,120l0 0c-4,4 -8,7 -12,10l423 844c15,-4 31,-6 48,-6 53,0 100,21 134,56 35,34 56,81 56,134 0,52 -21,99 -56,134 -34,34 -81,55 -134,55 -11,0 -22,-1 -33,-3l-132 329c11,7 21,15 29,24l0 0c35,34 56,82 56,134 0,28 -6,54 -17,78l1799 1303c30,-25 69,-41 111,-41 47,0 90,19 121,50 30,31 50,73 50,120 0,47 -20,90 -50,120l0 0c-3,3 -6,6 -9,8l761 1438c17,-5 34,-8 53,-8 52,0 99,22 134,56l0 0c34,34 55,82 55,134 0,52 -21,100 -55,134l0 0c-35,34 -82,55 -134,55 -53,0 -100,-21 -134,-55l0 0c-35,-34 -56,-82 -56,-134 0,-22 4,-43 11,-63l-1140 -687c-1,2 -3,3 -5,5 -34,34 -81,55 -134,55 -52,0 -99,-21 -134,-55 -34,-34 -55,-82 -55,-134 0,-12 1,-24 3,-35l-2637 -1090c-5,8 -11,15 -18,22 -30,30 -73,50 -120,50 -47,0 -90,-20 -120,-50l0 0c-31,-31 -50,-74 -50,-121 0,-47 19,-89 50,-120l0 0c30,-31 73,-50 120,-50 8,0 15,1 23,2l252 -663c-12,-7 -22,-16 -32,-25l0 0c-34,-35 -55,-82 -55,-134 0,-53 21,-100 55,-134 34,-35 82,-56 134,-56 52,0 100,21 134,56 19,18 34,41 43,66l667 -106c2,-49 23,-93 55,-125 35,-34 82,-55 134,-55 12,0 23,1 33,3l132 -329c-10,-7 -20,-15 -29,-24 -34,-34 -55,-82 -55,-134 0,-53 21,-100 55,-134l0 0c5,-5 11,-10 17,-15l-423 -844c-13,3 -26,5 -40,5 -47,0 -89,-19 -120,-50 -17,-17 -30,-37 -39,-60l-611 82c-4,47 -24,89 -55,120l0 0c-35,35 -82,56 -134,56 -53,0 -100,-21 -134,-56 -35,-34 -56,-81 -56,-134 0,-52 21,-99 56,-134 34,-34 81,-55 134,-55 52,0 99,21 134,55 20,20 35,44 44,71zm1219 1907c-34,30 -79,49 -128,49 -52,0 -99,-21 -134,-56 -18,-18 -33,-41 -43,-66l-667 106c-2,49 -23,92 -55,125 -34,34 -82,55 -134,55 -10,0 -20,0 -30,-2l-252 662c9,6 18,13 25,21l0 0c31,31 50,73 50,120 0,10 0,19 -2,28l2637 1089c6,-10 14,-19 22,-27l0 0c35,-35 82,-56 134,-56 53,0 100,21 134,56 35,34 56,81 56,134 0,22 -4,43 -11,62l1140 688c1,-2 3,-4 5,-5l0 0c4,-4 8,-8 13,-12l-761 -1437c-14,3 -29,5 -44,5 -47,0 -89,-19 -120,-50 -31,-30 -50,-73 -50,-120 0,-23 5,-46 13,-66l-1798 -1303z"/>
 </g>
</svg>
