<?xml version="1.0" encoding="UTF-8"?>
<!DOCTYPE svg PUBLIC "-//W3C//DTD SVG 1.1//EN" "http://www.w3.org/Graphics/SVG/1.1/DTD/svg11.dtd">
<!-- Creator: CorelDRAW X7 -->
<svg xmlns="http://www.w3.org/2000/svg" xml:space="preserve" width="105mm" height="148mm" version="1.1" style="shape-rendering:geometricPrecision; text-rendering:geometricPrecision; image-rendering:optimizeQuality; fill-rule:evenodd; clip-rule:evenodd"
viewBox="0 0 10500 14800"
 xmlns:xlink="http://www.w3.org/1999/xlink">
 <defs>
  <style type="text/css">
   <![CDATA[
    .fil0 {fill:#2B2A29}
   ]]>
  </style>
 </defs>
 <g id="Слой_x0020_1">
  <metadata id="CorelCorpID_0Corel-Layer"/>
  <path class="fil0" d="M2866 5303c47,0 90,19 121,50 30,31 49,73 49,120l0 1 1796 431c8,-17 19,-32 32,-45l0 0c31,-30 73,-49 120,-49 47,0 90,19 121,49 20,20 34,45 43,73l2567 -146c6,-23 18,-44 34,-61l0 0c24,-24 57,-38 93,-38 24,0 46,6 66,17l420 -390c-15,-25 -23,-54 -23,-85 0,-47 19,-89 50,-120l0 0c31,-31 73,-50 120,-50 47,0 90,19 121,50l0 0c31,31 50,73 50,120 0,47 -19,90 -50,120l0 0c-31,31 -74,50 -121,50 -35,0 -67,-10 -94,-29l-420 391c8,17 13,36 13,57 0,36 -15,69 -39,93l0 0c-24,24 -56,38 -93,38 -24,0 -47,-6 -66,-18l-2262 2072c8,17 13,36 13,56 0,36 -15,69 -39,93 -23,24 -56,39 -93,39 -31,0 -60,-11 -82,-30l-169 113c7,19 11,39 11,60 0,47 -20,90 -50,121l0 0c-31,30 -74,49 -121,49 -47,0 -89,-19 -120,-49 -31,-31 -50,-74 -50,-121 0,-25 5,-49 15,-70l-1377 -1058c-29,25 -67,39 -108,39 -47,0 -89,-19 -120,-50 -31,-31 -50,-73 -50,-120 0,-43 16,-83 43,-113l-464 -654c-13,4 -27,6 -41,6 -36,0 -69,-14 -93,-38 -24,-24 -38,-57 -38,-93 0,-23 5,-44 15,-62l-449 -455c-30,19 -65,30 -103,30 -52,0 -100,-21 -134,-55l0 0c-34,-34 -56,-82 -56,-134 0,-52 22,-100 56,-134 34,-34 82,-56 134,-56 52,0 100,22 134,56 24,24 41,54 50,87l471 -19c6,-35 23,-65 47,-89 31,-31 73,-50 120,-50zm152 247c-8,16 -19,31 -31,44 -31,30 -74,49 -121,49 -47,0 -89,-19 -120,-49l0 0c-21,-21 -36,-46 -44,-75l-471 20c-4,27 -15,52 -29,74l449 454c18,-9 39,-14 61,-14 36,0 69,14 93,38 24,24 38,57 38,93 0,30 -10,58 -27,80l464 654c20,-8 42,-12 64,-12 47,0 90,19 121,49 31,31 50,74 50,121 0,25 -6,49 -15,70l1376 1057c30,-24 67,-38 108,-38 45,0 86,17 117,46l169 -113c-4,-12 -6,-25 -6,-38 0,-36 15,-69 39,-93 23,-23 56,-38 92,-38 25,0 47,6 67,18l2262 -2072c-2,-3 -4,-7 -5,-10l-2567 145c-6,35 -23,67 -47,91 -31,31 -74,50 -121,50 -47,0 -89,-19 -120,-50 -31,-31 -50,-73 -50,-120l0 -1 -1796 -430z"/>
 </g>
</svg>
