<?xml version="1.0" encoding="UTF-8"?>
<!DOCTYPE svg PUBLIC "-//W3C//DTD SVG 1.1//EN" "http://www.w3.org/Graphics/SVG/1.1/DTD/svg11.dtd">
<!-- Creator: CorelDRAW X7 -->
<svg xmlns="http://www.w3.org/2000/svg" xml:space="preserve" width="105mm" height="148mm" version="1.1" style="shape-rendering:geometricPrecision; text-rendering:geometricPrecision; image-rendering:optimizeQuality; fill-rule:evenodd; clip-rule:evenodd"
viewBox="0 0 10500 14800"
 xmlns:xlink="http://www.w3.org/1999/xlink">
 <defs>
  <style type="text/css">
   <![CDATA[
    .fil0 {fill:#2B2A29}
   ]]>
  </style>
 </defs>
 <g id="Слой_x0020_1">
  <metadata id="CorelCorpID_0Corel-Layer"/>
  <path class="fil0" d="M3123 4468c52,0 100,21 134,55 4,4 8,8 11,12 28,33 45,76 45,123 0,30 -7,58 -20,83l847 661 -430 -1057c-9,1 -18,2 -27,2 -47,0 -89,-19 -120,-50 -2,-2 -4,-4 -6,-6 -27,-30 -44,-70 -44,-114 0,-47 19,-90 50,-121l0 0c31,-30 73,-50 120,-50 47,0 90,20 120,50 31,31 50,74 50,121 0,47 -19,89 -50,120l0 0c-6,7 -14,13 -21,19l437 1075c4,0 8,0 11,0 37,0 69,14 93,38 24,24 39,57 39,93 0,13 -2,25 -5,36l148 97 0 -1 0 0c35,-34 82,-55 135,-55 52,0 99,21 134,55 34,35 55,82 55,134 0,53 -21,100 -55,134 -7,7 -14,13 -22,19l70 154c6,-1 11,-1 17,-1 36,0 69,14 93,38l0 0c24,24 38,57 38,93 0,36 -14,69 -38,93 -2,2 -4,4 -7,6l279 628c13,-2 26,-4 40,-4 52,0 99,21 134,56l0 0 0 0c34,34 55,82 55,134 0,41 -13,79 -35,110 -6,8 -13,16 -20,24l0 0c-32,31 -74,51 -121,55l27 1304c33,7 62,24 85,47 31,30 50,73 50,120 0,17 -3,34 -8,50l501 293c23,-22 55,-35 89,-35 36,0 69,15 93,39l0 0c21,20 35,48 38,79l617 125c8,-18 20,-35 34,-49l0 0c31,-31 74,-50 121,-50 47,0 89,19 120,50l0 0 2 1 597 -359c-3,-11 -4,-21 -4,-32 0,-25 7,-47 18,-67l-149 -165c-16,8 -35,12 -55,12 -36,0 -69,-15 -93,-38 -23,-24 -38,-57 -38,-93 0,-36 15,-69 38,-93 3,-3 6,-6 9,-8l-174 -417c-9,1 -19,2 -28,2 -47,0 -90,-19 -121,-50 -31,-31 -50,-73 -50,-120 0,-20 4,-40 10,-58 9,-24 23,-45 40,-63 31,-30 74,-49 121,-49 47,0 89,19 120,49 31,31 50,74 50,121 0,47 -19,89 -50,120 -6,7 -13,12 -21,18l175 417c4,0 8,-1 12,-1 36,0 69,15 93,39l0 0c24,24 39,57 39,93 0,24 -7,47 -19,67l149 165c17,-8 35,-12 55,-12 36,0 69,14 93,38l0 0c24,24 39,57 39,93 0,36 -15,69 -39,93l0 0c-24,24 -57,38 -93,38 -33,0 -64,-12 -87,-33l-597 360c5,16 8,34 8,52 0,47 -19,90 -50,120 -31,31 -73,50 -120,50 -47,0 -90,-19 -121,-50 -29,-29 -48,-70 -49,-115l-618 -125c-6,11 -13,21 -22,30 -24,24 -57,39 -93,39 -36,0 -69,-15 -93,-39l0 0c-24,-24 -39,-56 -39,-93 0,-10 2,-20 4,-29l-501 -293 -3 3 0 0c-31,31 -74,50 -121,50 -47,0 -89,-19 -120,-50 -31,-30 -50,-73 -50,-120 0,-47 19,-90 50,-120 21,-22 48,-37 78,-45l-26 -1317c-27,-9 -51,-25 -70,-44l0 0c-35,-34 -56,-82 -56,-134 0,-37 11,-72 29,-102 8,-11 17,-22 27,-32 7,-8 15,-14 23,-20l-279 -628c-5,0 -10,0 -15,0 -36,0 -69,-14 -93,-38l0 0c-24,-24 -38,-57 -38,-93 0,-36 14,-69 38,-93 2,-2 4,-3 6,-5l-71 -154c-13,3 -27,5 -41,5 -53,0 -100,-21 -135,-56 -34,-34 -55,-81 -55,-134 0,-24 5,-47 13,-68l-149 -97 0 1 7 18 -15 -12c-22,15 -48,23 -76,23 -36,0 -69,-14 -92,-38 -14,-13 -25,-30 -31,-48l-1151 54c-4,20 -11,39 -21,56 -7,12 -16,24 -26,34l0 0c-31,31 -73,50 -120,50 -47,0 -90,-19 -121,-50l0 0c-31,-31 -50,-74 -50,-121 0,-47 19,-89 50,-120 31,-31 74,-50 121,-50 47,0 89,19 120,50l0 0c20,20 35,46 43,74l1151 -55c1,-4 3,-9 5,-14l-862 -673c-34,28 -76,45 -123,45 -52,0 -100,-21 -134,-55l0 0c-34,-35 -56,-82 -56,-134 0,-53 22,-100 56,-135 34,-34 82,-55 134,-55z"/>
 </g>
</svg>
