<?xml version="1.0" encoding="UTF-8"?>
<!DOCTYPE svg PUBLIC "-//W3C//DTD SVG 1.1//EN" "http://www.w3.org/Graphics/SVG/1.1/DTD/svg11.dtd">
<!-- Creator: CorelDRAW X7 -->
<svg xmlns="http://www.w3.org/2000/svg" xml:space="preserve" width="105mm" height="148mm" version="1.1" style="shape-rendering:geometricPrecision; text-rendering:geometricPrecision; image-rendering:optimizeQuality; fill-rule:evenodd; clip-rule:evenodd"
viewBox="0 0 10500 14800"
 xmlns:xlink="http://www.w3.org/1999/xlink">
 <defs>
  <style type="text/css">
   <![CDATA[
    .fil0 {fill:#2B2A29}
   ]]>
  </style>
 </defs>
 <g id="Слой_x0020_1">
  <metadata id="CorelCorpID_0Corel-Layer"/>
  <path class="fil0" d="M3379 5225c53,0 100,21 135,56l0 0c34,34 55,81 55,134 0,46 -17,89 -44,122l589 750c14,-6 30,-9 47,-9 36,0 69,15 93,38l0 0c18,19 30,42 36,68l541 56c7,-16 17,-30 28,-41l0 0c24,-24 57,-39 93,-39 16,0 30,3 44,8l13 -17 166 -224c-16,-22 -25,-49 -25,-78 0,-36 15,-69 38,-92 20,-20 46,-33 74,-38l99 -637 17 -107c-13,-6 -25,-15 -35,-25 -18,-17 -30,-40 -36,-65l-284 -24c-7,16 -17,31 -29,43l0 0c-24,24 -57,38 -93,38 -36,0 -69,-14 -93,-38l0 0c-24,-24 -38,-57 -38,-93 0,-36 14,-69 38,-93l0 0c24,-24 57,-38 93,-38 36,0 69,14 93,38l0 0c11,12 21,25 27,40 4,8 6,17 8,25l285 25c6,-17 16,-31 29,-44l0 0c23,-23 56,-38 92,-38 37,0 70,15 93,38 14,14 25,31 31,50l130 -6c6,-22 18,-43 34,-59l0 0c24,-24 57,-38 93,-38 17,0 33,3 48,8l435 -548c-4,-6 -8,-12 -10,-18 -9,-17 -13,-36 -13,-56 0,-37 14,-70 38,-93 24,-24 57,-39 93,-39 36,0 69,15 93,39l0 0c24,23 38,56 38,93 0,36 -14,69 -38,92l0 0c-24,24 -57,39 -93,39 -17,0 -33,-3 -48,-9l-435 549c15,21 23,46 23,74 0,36 -14,69 -38,93l0 0c-24,24 -57,38 -93,38 -36,0 -69,-14 -93,-38l0 0c-14,-14 -24,-31 -31,-49l-129 5c-6,23 -18,43 -35,59 -19,20 -45,33 -74,37l-115 744c13,7 25,15 35,26 24,23 39,56 39,92 0,37 -15,70 -39,93 -24,24 -56,39 -93,39 -15,0 -30,-3 -44,-8l-179 241c16,22 26,49 26,78 0,6 -1,13 -2,19l329 159c4,-5 8,-9 12,-13 31,-31 74,-50 121,-50 10,0 21,1 31,3l150 -338c-3,-2 -5,-4 -7,-6l0 0c-24,-24 -39,-57 -39,-93 0,-36 15,-69 39,-93l0 0c24,-24 56,-39 93,-39 35,0 67,15 91,37l727 -399c-4,-15 -7,-30 -7,-46 0,-47 19,-89 50,-120 31,-31 74,-50 121,-50 47,0 89,19 120,50l0 0c31,31 50,73 50,120 0,8 -1,15 -2,23l664 251c3,-4 7,-8 10,-12l0 0c24,-24 57,-39 93,-39 37,0 69,15 93,39l0 0c24,24 39,57 39,93 0,20 -5,39 -13,57l224 207c31,-22 69,-35 110,-35 52,0 99,21 134,56 34,34 55,81 55,134 0,52 -21,100 -55,134l0 0c-35,34 -82,55 -134,55 -9,0 -18,0 -26,-1l-355 997c10,7 19,15 28,23 31,31 50,74 50,121 0,47 -19,89 -50,120l0 0c-31,31 -73,50 -119,50l-95 415c10,6 19,13 27,21l0 0c24,24 39,56 39,93 0,36 -15,69 -39,93l0 0 0 0c-24,23 -57,38 -93,38 -26,0 -50,-8 -71,-21l-827 697c6,16 10,33 10,51 0,36 -15,69 -38,93 -24,24 -57,38 -93,38 -37,0 -69,-14 -93,-38l0 0c-24,-24 -39,-57 -39,-93 0,-36 15,-69 39,-93 24,-24 56,-38 93,-38 26,0 50,7 71,21l827 -697c-5,-12 -8,-25 -10,-39l-607 -128c-6,10 -14,20 -22,29l0 0c-24,23 -57,38 -93,38 -36,0 -69,-15 -93,-38 -24,-24 -38,-57 -38,-93 0,-36 14,-69 38,-93 4,-4 8,-8 13,-11 22,-17 50,-28 80,-28 36,0 69,15 93,39 21,21 35,49 38,81l607 128c6,-11 14,-21 22,-29l0 0c22,-22 51,-36 83,-38l95 -415c-17,-9 -32,-20 -46,-33 -31,-31 -50,-73 -50,-120 0,-47 19,-90 50,-121 31,-31 74,-50 121,-50 6,0 12,1 19,1l355 -997c-13,-8 -25,-18 -35,-28 -35,-34 -56,-82 -56,-134 0,-36 10,-69 27,-98l-224 -208c-19,12 -42,18 -66,18 -36,0 -69,-15 -93,-38l0 0c-23,-24 -38,-57 -38,-93 0,-3 0,-6 0,-8l-663 -252c-6,9 -13,18 -21,25l0 0c-31,31 -73,50 -120,50 -47,0 -90,-19 -121,-50 -2,-2 -4,-4 -6,-6l-727 399c2,9 3,18 3,27 0,36 -15,69 -38,93l0 0c-24,23 -57,38 -93,38 -5,0 -11,0 -16,-1l-149 338c7,5 12,10 18,16 31,30 50,73 50,120 0,47 -19,90 -50,120 -3,4 -7,7 -10,10 -30,25 -68,40 -110,40 -47,0 -90,-19 -121,-50 -30,-30 -50,-73 -50,-120 0,-13 2,-25 5,-37l-35 -17 -295 -142 -3 3 0 0c-21,21 -48,35 -79,38 -5,1 -9,1 -14,1 -28,0 -55,-9 -77,-25 -5,-4 -11,-9 -16,-14l0 0c-18,-18 -30,-41 -36,-67l-408 -42 -133 -14c-7,15 -17,29 -28,41l0 0c-17,16 -37,28 -60,34l-28 616c19,6 35,17 49,31l0 0c24,23 39,56 39,93 0,32 -12,62 -32,85l193 307c10,-3 22,-5 34,-5 36,0 69,15 92,39l1 0c23,24 38,57 38,93 0,36 -15,69 -38,93l-1 0c-23,23 -56,38 -92,38 -7,0 -14,0 -20,-1l-174 357 4 3c24,24 38,57 38,93 0,36 -15,69 -38,93l0 0c-24,24 -57,39 -93,39 -36,0 -69,-15 -93,-39l0 0c-24,-24 -39,-57 -39,-93 0,-36 15,-69 39,-93l0 0c24,-23 57,-38 93,-38 7,0 13,0 20,1l173 -357c-1,-1 -2,-2 -3,-3l0 0c-24,-24 -39,-57 -39,-93 0,-33 12,-63 32,-86l-193 -307c-11,3 -22,5 -34,5 -36,0 -69,-15 -93,-39l0 0c-5,-5 -10,-11 -15,-18l-485 154 0 0c0,37 -15,69 -39,93l0 0c-24,24 -56,39 -93,39 -36,0 -69,-15 -92,-39 -24,-24 -39,-56 -39,-93 0,-4 0,-8 1,-12l-829 -343c-5,7 -11,14 -18,21 -30,31 -73,50 -120,50 -47,0 -90,-19 -120,-50 -31,-31 -50,-74 -50,-121 0,-47 19,-89 50,-120l0 0c30,-31 73,-50 120,-50 47,0 89,19 120,50 31,31 50,73 50,120 0,10 -1,19 -2,28l828 343c3,-3 6,-6 9,-9l0 0 0 0c23,-23 56,-38 92,-38 37,0 69,15 93,38l0 0c6,6 11,12 15,19l486 -154 0 0c0,-37 15,-70 38,-93l0 0c15,-15 33,-26 53,-32 2,-1 5,-2 7,-3l27 -615c-18,-7 -35,-17 -48,-31l0 0c-24,-24 -39,-56 -39,-93 0,-27 9,-53 24,-74l-589 -750c-5,2 -9,4 -13,6 -22,8 -46,13 -72,13 -52,0 -99,-21 -134,-55l0 0c-34,-35 -55,-82 -55,-134 0,-53 21,-100 55,-134l0 0 0 0c35,-35 82,-56 134,-56z"/>
 </g>
</svg>
