<?xml version="1.0" encoding="UTF-8"?>
<!DOCTYPE svg PUBLIC "-//W3C//DTD SVG 1.1//EN" "http://www.w3.org/Graphics/SVG/1.1/DTD/svg11.dtd">
<!-- Creator: CorelDRAW X7 -->
<svg xmlns="http://www.w3.org/2000/svg" xml:space="preserve" width="105mm" height="148mm" version="1.1" style="shape-rendering:geometricPrecision; text-rendering:geometricPrecision; image-rendering:optimizeQuality; fill-rule:evenodd; clip-rule:evenodd"
viewBox="0 0 10500 14800"
 xmlns:xlink="http://www.w3.org/1999/xlink">
 <defs>
  <style type="text/css">
   <![CDATA[
    .fil0 {fill:#2B2A29}
   ]]>
  </style>
 </defs>
 <g id="Слой_x0020_1">
  <metadata id="CorelCorpID_0Corel-Layer"/>
  <path class="fil0" d="M4305 8371c22,0 42,3 61,10l81 -138c-21,-24 -34,-55 -34,-89 0,-31 11,-60 29,-83l-695 -1039c-18,7 -39,11 -60,11 -47,0 -89,-19 -120,-50l0 0c-31,-30 -50,-73 -50,-120 0,-47 19,-89 50,-120l0 0c31,-31 73,-50 120,-50 4,0 8,0 12,0l450 -1473c-7,-5 -13,-10 -19,-16l0 0c-24,-24 -38,-57 -38,-93 0,-36 14,-69 38,-93l0 0c24,-23 57,-38 93,-38 36,0 69,15 93,38l0 0c12,13 22,27 29,43l1410 -126c5,-25 18,-48 36,-66l0 0 0 0c23,-23 56,-38 92,-38 37,0 70,15 93,38l0 0c24,24 39,57 39,93 0,36 -15,69 -39,93 -18,18 -41,31 -67,36l-109 1042c16,7 30,16 41,28l0 0c24,24 39,57 39,93 0,22 -5,42 -15,61l824 813c30,-20 66,-32 105,-32 52,0 99,21 134,56 34,34 55,81 55,134 0,52 -21,99 -55,134 -35,34 -82,55 -134,55 -53,0 -100,-21 -135,-55 -34,-35 -55,-82 -55,-134 0,-38 11,-73 30,-103l-823 -813c-19,10 -40,15 -62,15 -37,0 -70,-14 -93,-38 -24,-24 -39,-57 -39,-93 0,-36 15,-69 39,-93l0 0c18,-18 41,-31 67,-36l109 -1042c-6,-3 -12,-6 -18,-9l-1976 1710c12,24 19,51 19,79 0,45 -17,86 -45,116l695 1039c11,-3 24,-5 37,-5 36,0 69,14 93,38l0 0c24,24 39,57 39,93 0,36 -15,69 -39,93l0 0c-24,24 -57,38 -93,38 -10,0 -20,-1 -30,-3l-81 138c2,2 4,4 7,6 34,35 55,82 55,134 0,53 -21,100 -55,134 -35,35 -82,56 -135,56 -52,0 -99,-21 -134,-56 -34,-34 -55,-81 -55,-134 0,-52 21,-99 55,-134 35,-34 82,-55 134,-55zm-518 -1636l1976 -1710 -1 -3 -1410 127c-6,25 -18,47 -36,65l0 0c-24,24 -57,39 -93,39l-450 1473c5,3 10,6 14,9z"/>
 </g>
</svg>
