<?xml version="1.0" encoding="UTF-8"?>
<!DOCTYPE svg PUBLIC "-//W3C//DTD SVG 1.1//EN" "http://www.w3.org/Graphics/SVG/1.1/DTD/svg11.dtd">
<!-- Creator: CorelDRAW X7 -->
<svg xmlns="http://www.w3.org/2000/svg" xml:space="preserve" width="105mm" height="148mm" version="1.1" style="shape-rendering:geometricPrecision; text-rendering:geometricPrecision; image-rendering:optimizeQuality; fill-rule:evenodd; clip-rule:evenodd"
viewBox="0 0 10500 14800"
 xmlns:xlink="http://www.w3.org/1999/xlink">
 <defs>
  <style type="text/css">
   <![CDATA[
    .fil0 {fill:#2B2A29}
   ]]>
  </style>
 </defs>
 <g id="Слой_x0020_1">
  <metadata id="CorelCorpID_0Corel-Layer"/>
  <path class="fil0" d="M3019 6621c52,0 99,21 134,56l0 0c34,34 55,81 55,134 0,38 -11,73 -30,103l562 558c26,-16 57,-26 90,-26 47,0 90,19 121,50l0 0c31,31 50,74 50,121 0,46 -19,89 -50,120l0 0c-15,14 -32,26 -51,35l222 1157c51,1 97,22 131,56 34,34 55,82 55,134 0,52 -21,100 -55,134 -35,34 -82,55 -134,55 -53,0 -100,-21 -134,-55l0 0c-35,-34 -56,-82 -56,-134 0,-52 21,-100 56,-134 17,-17 38,-31 61,-41l-222 -1157c-45,-2 -85,-21 -114,-50l0 0c-31,-31 -50,-74 -50,-120 0,-33 9,-64 25,-90l-562 -558c-30,20 -66,31 -104,31 -53,0 -100,-21 -134,-55l0 0c-15,-15 -27,-31 -36,-50l-825 215 0 4c0,47 -19,90 -50,120 -31,31 -73,50 -120,50 -47,0 -90,-19 -121,-50l0 0c-31,-31 -50,-73 -50,-120 0,-47 19,-90 50,-120l0 0c31,-31 74,-50 121,-50 7,0 15,0 22,1l674 -1772c-9,-6 -17,-13 -25,-21l0 0c-31,-30 -50,-73 -50,-120 0,-47 19,-90 50,-120 31,-31 73,-50 120,-50 46,0 87,18 118,47l422 -275c-4,-12 -5,-24 -5,-36 0,-37 14,-69 38,-93 24,-24 57,-39 93,-39 36,0 69,15 93,39 24,24 38,56 38,93 0,29 -9,56 -25,77l167 225c13,-4 28,-7 43,-7 32,0 62,11 85,31l600 -389c-8,-21 -13,-44 -13,-68 0,-53 22,-100 56,-134l0 0c34,-35 82,-56 134,-56 52,0 100,21 134,56l0 0c34,34 55,81 55,134 0,12 -1,24 -3,35l3796 1580c6,-10 14,-19 22,-27 34,-35 82,-56 134,-56 52,0 100,21 134,56 34,34 56,81 56,134 0,52 -22,99 -56,134l0 0c-34,34 -82,55 -134,55 -52,0 -100,-21 -134,-55 -34,-35 -56,-82 -56,-134 0,-12 2,-24 4,-36l-3796 -1579c-6,9 -14,18 -22,27 -17,17 -38,31 -61,41l242 1280c30,3 58,17 78,38 24,23 39,56 39,92 0,23 -6,44 -16,63l724 740c26,-15 56,-24 88,-24 47,0 90,19 120,50 31,30 50,73 50,120 0,47 -19,89 -50,120 -30,31 -73,50 -120,50 -47,0 -90,-19 -120,-50 -31,-31 -50,-73 -50,-120 0,-34 10,-65 26,-91l-724 -741c-18,10 -38,15 -60,15 -36,0 -69,-15 -93,-39 -24,-23 -38,-56 -38,-93 0,-36 15,-69 38,-92l0 0c9,-10 20,-18 32,-24l-243 -1280c-51,-1 -97,-22 -130,-55l-1 -1 -600 389c3,11 5,23 5,35 0,37 -15,69 -39,93 -24,24 -57,39 -93,39 -36,0 -69,-15 -93,-39 -23,-24 -38,-56 -38,-93 0,-29 9,-56 25,-77l-166 -225c-14,4 -29,7 -44,7 -32,0 -61,-11 -84,-30l-422 275c7,18 10,38 10,58 0,47 -19,90 -49,120l0 0c-31,31 -74,50 -121,50 -7,0 -15,0 -22,-1l-674 1772c9,6 17,13 25,21 12,12 22,25 30,41l825 -215c0,-3 0,-6 0,-9 0,-53 21,-100 56,-134l0 0c34,-35 81,-56 134,-56z"/>
 </g>
</svg>
