<?xml version="1.0" encoding="UTF-8"?>
<!DOCTYPE svg PUBLIC "-//W3C//DTD SVG 1.1//EN" "http://www.w3.org/Graphics/SVG/1.1/DTD/svg11.dtd">
<!-- Creator: CorelDRAW X7 -->
<svg xmlns="http://www.w3.org/2000/svg" xml:space="preserve" width="105mm" height="148mm" version="1.1" style="shape-rendering:geometricPrecision; text-rendering:geometricPrecision; image-rendering:optimizeQuality; fill-rule:evenodd; clip-rule:evenodd"
viewBox="0 0 10500 14800"
 xmlns:xlink="http://www.w3.org/1999/xlink">
 <defs>
  <style type="text/css">
   <![CDATA[
    .fil0 {fill:#2B2A29}
   ]]>
  </style>
 </defs>
 <g id="Слой_x0020_1">
  <metadata id="CorelCorpID_0Corel-Layer"/>
  <path class="fil0" d="M6065 7676c52,0 100,21 134,55 34,35 55,82 55,134 0,8 0,15 -1,22l1203 398c5,-6 9,-12 14,-17l0 0c24,-24 57,-38 93,-38 36,0 69,14 93,38 24,24 39,57 39,93 0,36 -15,69 -39,93l0 0c-4,5 -9,9 -14,13l119 336c2,0 3,0 5,0 37,0 69,15 93,38 24,24 39,57 39,93 0,37 -15,69 -39,93l0 0c-24,24 -56,39 -93,39 -36,0 -69,-15 -93,-39 -23,-24 -38,-56 -38,-93 0,-36 15,-69 38,-93l0 0 1 0c4,-4 9,-8 14,-12l-119 -337c-2,1 -4,1 -6,1 -36,0 -69,-15 -93,-39 -23,-24 -38,-57 -38,-93l0 -2 -1203 -399c-9,15 -19,28 -30,39 -34,35 -82,56 -134,56 -53,0 -100,-21 -134,-56l0 0c-35,-34 -56,-81 -56,-134 0,-31 8,-61 21,-87l-447 -366c-21,13 -46,22 -73,22 -36,0 -69,-15 -93,-39 -11,-11 -20,-24 -27,-38l-146 19c-5,27 -18,52 -37,70l0 0c-24,24 -57,39 -93,39 -36,0 -69,-15 -93,-39 -23,-23 -38,-56 -38,-92 0,-8 0,-16 2,-23l-244 -125 -2 1 0 0c-24,24 -56,39 -93,39 -36,0 -69,-15 -93,-39 -23,-23 -38,-56 -38,-92 0,-11 1,-22 4,-32l-1564 -940c-23,21 -54,34 -87,34 -37,0 -69,-15 -93,-39l0 0c-24,-24 -39,-56 -39,-93 0,-36 15,-69 39,-93l0 0c24,-23 56,-38 93,-38 36,0 69,15 93,38l0 0c23,24 38,57 38,93 0,11 -1,22 -4,32l1564 940c23,-21 54,-34 87,-34 37,0 69,15 93,39l0 0c24,23 39,56 39,93 0,7 -1,15 -2,22l244 125 1 -1 0 0c24,-24 57,-39 93,-39 36,0 69,15 93,39l0 0c11,11 20,24 27,38l147 -19c2,-13 6,-26 12,-38 6,-12 15,-23 24,-33l0 0c7,-7 15,-13 24,-19l-35 -134c-34,-2 -64,-16 -87,-39l0 0c-16,-16 -28,-37 -34,-60l-145 -6c-6,18 -17,35 -31,48l0 0c-23,24 -56,39 -93,39 -36,0 -69,-15 -92,-39l0 0c-24,-24 -39,-56 -39,-93 0,-36 15,-69 39,-93 15,-15 34,-26 55,-33l2 -147c-20,-6 -38,-18 -52,-32l0 0 0 0c-24,-24 -39,-57 -39,-93 0,-32 12,-62 31,-84l-306 -473c-11,3 -23,5 -35,5 -37,0 -70,-15 -93,-39 -24,-24 -39,-56 -39,-93 0,-17 3,-33 9,-48l2 -4 -1014 -876c-31,24 -71,39 -115,39 -52,0 -99,-22 -134,-56l0 0c-34,-34 -55,-82 -55,-134 0,-52 21,-100 55,-134l0 0c35,-34 82,-56 134,-56 53,0 100,22 134,56l0 0c35,34 56,82 56,134 0,33 -9,65 -24,92l1014 876c20,-13 44,-20 70,-20 36,0 69,15 92,38 24,24 39,57 39,93 0,32 -12,62 -31,85l306 473c11,-4 23,-5 36,-5 36,0 69,14 93,38 23,24 38,57 38,93 0,36 -15,69 -38,93l0 0c-16,15 -35,27 -56,33l-2 143 355 16c-36,0 -69,15 -92,38l-1 1 0 0c-13,13 -24,30 -30,48l-145 -7c-6,-23 -18,-43 -35,-60 -14,-14 -32,-25 -52,-32l0 -4 355 16c37,0 69,15 93,38l0 1 0 0c24,23 39,56 39,92 0,37 -15,69 -39,93l0 0c-7,7 -15,14 -24,19l35 135c34,1 64,16 87,38l0 0 0 0c24,24 38,57 38,93 0,18 -3,34 -9,50l448 366c32,-27 74,-42 119,-42z"/>
 </g>
</svg>
