<?xml version="1.0" encoding="UTF-8"?>
<!DOCTYPE svg PUBLIC "-//W3C//DTD SVG 1.1//EN" "http://www.w3.org/Graphics/SVG/1.1/DTD/svg11.dtd">
<!-- Creator: CorelDRAW X7 -->
<svg xmlns="http://www.w3.org/2000/svg" xml:space="preserve" width="105mm" height="148mm" version="1.1" style="shape-rendering:geometricPrecision; text-rendering:geometricPrecision; image-rendering:optimizeQuality; fill-rule:evenodd; clip-rule:evenodd"
viewBox="0 0 10500 14800"
 xmlns:xlink="http://www.w3.org/1999/xlink">
 <defs>
  <style type="text/css">
   <![CDATA[
    .fil0 {fill:#2B2A29}
   ]]>
  </style>
 </defs>
 <g id="Слой_x0020_1">
  <metadata id="CorelCorpID_0Corel-Layer"/>
  <path class="fil0" d="M3898 9010c29,0 57,6 83,17l1145 -1751 -4 -4c-39,-38 -63,-92 -63,-151 0,-59 24,-112 63,-151 17,-17 37,-31 59,-42l-90 -334c-3,1 -5,1 -8,1 -59,0 -112,-24 -151,-63 -39,-39 -63,-92 -63,-151 0,-59 24,-112 63,-151 23,-23 51,-41 83,-51l-72 -1603c-44,-7 -84,-29 -114,-59 -39,-39 -63,-92 -63,-151 0,-59 24,-113 63,-151 38,-39 92,-63 151,-63 59,0 112,24 151,63 39,38 63,92 63,151 0,59 -24,112 -63,151 -30,30 -68,51 -111,59l72 1591c55,3 105,26 142,63 39,39 63,92 63,151 0,59 -24,112 -63,151l0 0c-19,19 -42,35 -67,46l89 330c6,0 11,0 17,0 59,0 113,23 151,62 39,39 63,92 63,151 0,31 -7,60 -19,87l983 672 0 0c39,-39 92,-63 151,-63 59,0 112,24 151,63 39,39 63,92 63,151 0,59 -24,113 -63,151 -39,39 -92,63 -151,63 -59,0 -112,-24 -151,-63 -39,-38 -63,-92 -63,-151 0,-31 7,-60 19,-87l-982 -672 -1 0c-38,39 -92,63 -151,63 -29,0 -57,-6 -82,-17l-1145 1751 3 4c39,38 63,92 63,151 0,59 -24,112 -63,151 -39,38 -92,62 -151,62 -59,0 -112,-24 -151,-62 -39,-39 -63,-92 -63,-151 0,-59 24,-113 63,-151 39,-39 92,-63 151,-63z"/>
 </g>
</svg>
