<?xml version="1.0" encoding="UTF-8"?>
<!DOCTYPE svg PUBLIC "-//W3C//DTD SVG 1.1//EN" "http://www.w3.org/Graphics/SVG/1.1/DTD/svg11.dtd">
<!-- Creator: CorelDRAW X7 -->
<svg xmlns="http://www.w3.org/2000/svg" xml:space="preserve" width="105mm" height="148mm" version="1.1" style="shape-rendering:geometricPrecision; text-rendering:geometricPrecision; image-rendering:optimizeQuality; fill-rule:evenodd; clip-rule:evenodd"
viewBox="0 0 10500 14800"
 xmlns:xlink="http://www.w3.org/1999/xlink">
 <defs>
  <style type="text/css">
   <![CDATA[
    .fil0 {fill:#2B2A29}
   ]]>
  </style>
 </defs>
 <g id="Слой_x0020_1">
  <metadata id="CorelCorpID_0Corel-Layer"/>
  <path class="fil0" d="M4133 5629l-588 909c29,30 47,72 47,118 0,47 -19,89 -50,120 -30,31 -73,50 -120,50 -28,0 -54,-7 -77,-19l-820 970c13,21 21,45 21,71 0,37 -15,69 -39,93 -23,24 -56,39 -93,39 -19,0 -37,-4 -53,-12l-473 538c8,11 16,24 21,37l662 -141c3,-32 17,-60 38,-81l0 0c24,-24 57,-39 93,-39 37,0 69,15 93,39l0 0c7,7 13,14 18,23l1487 -403c0,-1 0,-3 0,-5 0,-47 19,-90 50,-121 31,-31 74,-50 121,-50 47,0 89,19 120,50 31,31 50,74 50,121 0,3 0,6 0,9l557 163c9,-16 20,-31 33,-44l0 0c34,-35 82,-56 134,-56 52,0 100,21 134,56l0 0 0 0c23,22 39,50 48,82l1165 -86c6,-24 18,-46 36,-63l0 0c23,-24 56,-38 92,-38 37,0 70,14 93,38l0 0c24,24 39,57 39,93 0,2 0,3 0,5l578 202c3,-5 6,-9 9,-14 5,-5 9,-11 14,-16 31,-30 74,-49 121,-49 47,0 89,19 120,49l0 1 1 0 252 -155c-6,-17 -9,-35 -9,-54 0,-47 19,-90 50,-121 31,-30 73,-49 120,-49 47,0 90,19 121,49l0 1c31,30 50,73 50,120 0,28 -7,54 -19,78l244 208c21,-13 45,-20 71,-20 36,0 69,14 93,38l0 0c23,24 38,57 38,93 0,36 -15,69 -38,93l0 0c-11,11 -24,20 -39,27l52 409c40,4 76,22 103,49 31,30 50,73 50,120 0,47 -19,90 -50,120l0 0c-31,31 -74,50 -121,50 -38,0 -74,-13 -103,-34l-279 230c12,23 18,49 18,76 0,47 -19,90 -50,120 -31,31 -73,50 -120,50 -47,0 -90,-19 -121,-50l1 0c-31,-30 -50,-73 -50,-120l0 -4 -424 -108c-5,8 -12,16 -19,24l0 0c-24,24 -56,38 -93,38 -36,0 -69,-14 -93,-38l0 0c-23,-24 -38,-57 -38,-93 0,-36 15,-69 38,-93 9,-8 18,-15 28,-21l-93 -417c-32,-3 -61,-17 -82,-38l0 0c-24,-24 -39,-57 -39,-93 0,-36 15,-69 39,-93l0 0c23,-24 56,-38 93,-38 17,0 34,3 49,9l114 -139c-22,-29 -35,-65 -35,-104 0,-6 0,-12 0,-18l-578 -202c-4,5 -8,10 -13,15 -23,24 -56,38 -93,38 -36,0 -69,-14 -92,-38 -13,-13 -23,-28 -30,-45l-1165 85c-6,42 -25,80 -54,109l0 0c-34,34 -82,55 -134,55 -52,0 -100,-21 -134,-55l0 0c-34,-34 -55,-82 -55,-134 0,-5 0,-10 0,-15l-557 -164c-8,14 -17,26 -28,37l0 0c-31,31 -74,50 -120,50 -47,0 -90,-19 -121,-50 -11,-12 -21,-25 -29,-40l-1487 402c-2,35 -16,66 -39,89l0 0c-24,23 -56,38 -93,38 -36,0 -69,-15 -93,-38 -8,-9 -15,-19 -21,-29l-663 141 1 0c0,53 -22,100 -56,134l0 0c-34,35 -82,56 -134,56 -52,0 -100,-21 -134,-56l0 0c-34,-34 -56,-81 -56,-134 0,-52 22,-99 56,-134l0 0c34,-34 82,-55 134,-55 34,0 66,9 93,24l473 -537c-12,-20 -19,-44 -19,-69 0,-36 15,-69 39,-93 23,-23 56,-38 92,-38 19,0 36,4 52,10l819 -970c-21,-28 -33,-63 -33,-101 0,-47 19,-90 50,-121 30,-30 73,-50 120,-50 20,0 40,4 58,10l570 -880c-27,-8 -51,-23 -70,-42l0 0c-31,-31 -50,-73 -50,-120 0,-47 19,-90 50,-121l0 0c10,-9 21,-18 33,-25l-161 -499c-5,1 -10,1 -14,1 -47,0 -90,-19 -121,-50l0 0c-31,-31 -50,-73 -50,-120 0,-47 19,-90 50,-121l0 0c31,-30 74,-49 121,-49 44,0 85,17 115,45l620 -419c-9,-22 -14,-46 -14,-71 0,-53 21,-100 55,-134 34,-35 82,-56 134,-56 53,0 100,21 134,56l0 0c35,34 56,81 56,134 0,52 -21,99 -56,134l0 0c-34,34 -81,55 -134,55 -51,0 -98,-20 -132,-53l-619 418c7,19 11,39 11,61 0,47 -19,89 -50,120l0 0c-10,10 -21,18 -33,26l161 498c5,0 10,0 15,0 47,0 89,19 120,49 31,31 50,74 50,121 0,47 -19,89 -50,120 -25,25 -58,42 -94,48 -2,0 -4,1 -6,1l12 7zm3722 2705c6,17 9,35 9,54 0,47 -19,89 -50,120l0 0c-31,31 -73,50 -120,50 -27,0 -52,-6 -75,-17l-114 139c14,21 22,46 22,73 0,36 -15,69 -39,93l0 0c-8,8 -17,15 -27,21l93 417c32,2 61,16 82,38 23,22 37,53 39,87l423 108c8,-15 18,-29 31,-41l-1 0c31,-31 74,-50 121,-50 39,0 74,13 103,35l279 -231c-11,-23 -18,-49 -18,-76 0,-47 19,-90 50,-120 17,-18 38,-31 61,-40l-52 -408c-27,-5 -51,-18 -70,-37l0 0 0 0c-24,-24 -39,-57 -39,-93 0,-18 4,-36 11,-52l-245 -208c-28,21 -63,33 -101,33 -47,0 -89,-19 -120,-50l0 0 -253 155z"/>
 </g>
</svg>
